<mxfile host="app.diagrams.net" modified="2022-07-11T13:59:00.735Z" agent="5.0 (Macintosh; Intel Mac OS X 10_15_7) AppleWebKit/605.1.15 (KHTML, like Gecko) Version/15.5 Safari/605.1.15" etag="a6hrUZ6tngiEVHS3RxwJ" version="20.0.4" type="github">
  <diagram id="pXOdbY4TyVLozTIWcUzW" name="Page-1">
    <mxGraphModel dx="925" dy="559" grid="1" gridSize="10" guides="1" tooltips="1" connect="1" arrows="1" fold="1" page="1" pageScale="1" pageWidth="827" pageHeight="1169" math="0" shadow="0">
      <root>
        <mxCell id="0" />
        <mxCell id="1" parent="0" />
        <mxCell id="N7mRdTda4_d7_o35qQJS-3" value="" style="edgeStyle=orthogonalEdgeStyle;rounded=0;orthogonalLoop=1;jettySize=auto;html=1;" edge="1" parent="1" source="N7mRdTda4_d7_o35qQJS-1" target="N7mRdTda4_d7_o35qQJS-2">
          <mxGeometry relative="1" as="geometry" />
        </mxCell>
        <mxCell id="N7mRdTda4_d7_o35qQJS-1" value="Material App" style="rounded=1;whiteSpace=wrap;html=1;" vertex="1" parent="1">
          <mxGeometry x="340" y="90" width="120" height="60" as="geometry" />
        </mxCell>
        <mxCell id="N7mRdTda4_d7_o35qQJS-5" value="" style="edgeStyle=orthogonalEdgeStyle;rounded=0;orthogonalLoop=1;jettySize=auto;html=1;" edge="1" parent="1" source="N7mRdTda4_d7_o35qQJS-2" target="N7mRdTda4_d7_o35qQJS-4">
          <mxGeometry relative="1" as="geometry" />
        </mxCell>
        <mxCell id="N7mRdTda4_d7_o35qQJS-7" value="" style="edgeStyle=orthogonalEdgeStyle;rounded=0;orthogonalLoop=1;jettySize=auto;html=1;" edge="1" parent="1" source="N7mRdTda4_d7_o35qQJS-2" target="N7mRdTda4_d7_o35qQJS-6">
          <mxGeometry relative="1" as="geometry" />
        </mxCell>
        <mxCell id="N7mRdTda4_d7_o35qQJS-11" value="" style="edgeStyle=orthogonalEdgeStyle;rounded=0;orthogonalLoop=1;jettySize=auto;html=1;" edge="1" parent="1" source="N7mRdTda4_d7_o35qQJS-2" target="N7mRdTda4_d7_o35qQJS-10">
          <mxGeometry relative="1" as="geometry" />
        </mxCell>
        <mxCell id="N7mRdTda4_d7_o35qQJS-2" value="Scaffold" style="whiteSpace=wrap;html=1;rounded=1;" vertex="1" parent="1">
          <mxGeometry x="340" y="230" width="120" height="60" as="geometry" />
        </mxCell>
        <mxCell id="N7mRdTda4_d7_o35qQJS-4" value="Color" style="whiteSpace=wrap;html=1;rounded=1;" vertex="1" parent="1">
          <mxGeometry x="80" y="370" width="120" height="60" as="geometry" />
        </mxCell>
        <mxCell id="N7mRdTda4_d7_o35qQJS-9" value="" style="edgeStyle=orthogonalEdgeStyle;rounded=0;orthogonalLoop=1;jettySize=auto;html=1;" edge="1" parent="1" source="N7mRdTda4_d7_o35qQJS-6" target="N7mRdTda4_d7_o35qQJS-8">
          <mxGeometry relative="1" as="geometry" />
        </mxCell>
        <mxCell id="N7mRdTda4_d7_o35qQJS-6" value="Center" style="whiteSpace=wrap;html=1;rounded=1;" vertex="1" parent="1">
          <mxGeometry x="540" y="370" width="120" height="60" as="geometry" />
        </mxCell>
        <mxCell id="N7mRdTda4_d7_o35qQJS-18" value="" style="edgeStyle=orthogonalEdgeStyle;rounded=0;orthogonalLoop=1;jettySize=auto;html=1;" edge="1" parent="1" source="N7mRdTda4_d7_o35qQJS-8" target="N7mRdTda4_d7_o35qQJS-17">
          <mxGeometry relative="1" as="geometry" />
        </mxCell>
        <mxCell id="N7mRdTda4_d7_o35qQJS-8" value="Image" style="whiteSpace=wrap;html=1;rounded=1;" vertex="1" parent="1">
          <mxGeometry x="540" y="510" width="120" height="60" as="geometry" />
        </mxCell>
        <mxCell id="N7mRdTda4_d7_o35qQJS-14" style="edgeStyle=orthogonalEdgeStyle;rounded=0;orthogonalLoop=1;jettySize=auto;html=1;exitX=0;exitY=0.5;exitDx=0;exitDy=0;" edge="1" parent="1" source="N7mRdTda4_d7_o35qQJS-10" target="N7mRdTda4_d7_o35qQJS-13">
          <mxGeometry relative="1" as="geometry" />
        </mxCell>
        <mxCell id="N7mRdTda4_d7_o35qQJS-16" value="" style="edgeStyle=orthogonalEdgeStyle;rounded=0;orthogonalLoop=1;jettySize=auto;html=1;" edge="1" parent="1" source="N7mRdTda4_d7_o35qQJS-10" target="N7mRdTda4_d7_o35qQJS-15">
          <mxGeometry relative="1" as="geometry" />
        </mxCell>
        <mxCell id="N7mRdTda4_d7_o35qQJS-10" value="App Bar" style="whiteSpace=wrap;html=1;rounded=1;" vertex="1" parent="1">
          <mxGeometry x="340" y="370" width="120" height="60" as="geometry" />
        </mxCell>
        <mxCell id="N7mRdTda4_d7_o35qQJS-13" value="Color" style="rounded=1;whiteSpace=wrap;html=1;" vertex="1" parent="1">
          <mxGeometry x="210" y="510" width="120" height="60" as="geometry" />
        </mxCell>
        <mxCell id="N7mRdTda4_d7_o35qQJS-15" value="Text" style="whiteSpace=wrap;html=1;rounded=1;" vertex="1" parent="1">
          <mxGeometry x="340" y="510" width="120" height="60" as="geometry" />
        </mxCell>
        <mxCell id="N7mRdTda4_d7_o35qQJS-17" value="Network Image" style="whiteSpace=wrap;html=1;rounded=1;" vertex="1" parent="1">
          <mxGeometry x="540" y="650" width="120" height="60" as="geometry" />
        </mxCell>
      </root>
    </mxGraphModel>
  </diagram>
</mxfile>
